<svg xmlns="http://www.w3.org/2000/svg" version="1.1" viewBox="0 0 1024 1280" x="0px" y="0px"><title>more-vertical</title><path d="M640 832c0 70.4-57.6 128-128 128s-128-57.6-128-128 57.6-128 128-128 128 57.6 128 128zM640 512c0 70.4-57.6 128-128 128s-128-57.6-128-128 57.6-128 128-128 128 57.6 128 128zM640 192c0 70.4-57.6 128-128 128s-128-57.6-128-128 57.6-128 128-128 128 57.6 128 128z"/><text x="0" y="1039" fill="#000000" font-size="5px" font-weight="bold" font-family="'Helvetica Neue', Helvetica, Arial-Unicode, Arial, Sans-serif">Created by scott desmond</text><text x="0" y="1044" fill="#000000" font-size="5px" font-weight="bold" font-family="'Helvetica Neue', Helvetica, Arial-Unicode, Arial, Sans-serif">from the Noun Project</text></svg>